<svg width="59" height="59" viewBox="0 0 59 59" fill="none" xmlns="http://www.w3.org/2000/svg">
<circle cx="29.5" cy="29.5" r="28.5" stroke="#323232" stroke-width="2"/>
<path d="M36.6085 14H22.3914C17.7643 14 14 17.7643 14 22.3914V36.6088C14 41.2356 17.7643 44.9999 22.3914 44.9999H36.6088C41.2356 44.9999 44.9999 41.2356 44.9999 36.6088V22.3914C44.9999 17.7643 41.2356 14 36.6085 14V14ZM29.5 37.9763C24.826 37.9763 21.0237 34.1739 21.0237 29.5C21.0237 24.826 24.826 21.0237 29.5 21.0237C34.1739 21.0237 37.9763 24.826 37.9763 29.5C37.9763 34.1739 34.1739 37.9763 29.5 37.9763ZM38.179 23.0226C36.7977 23.0226 35.6743 21.8992 35.6743 20.518C35.6743 19.1368 36.7977 18.0131 38.179 18.0131C39.5602 18.0131 40.6839 19.1368 40.6839 20.518C40.6839 21.8992 39.5602 23.0226 38.179 23.0226Z" fill="#858585"/>
<path d="M29.5 22.8411C25.8284 22.8411 22.8411 25.8282 22.8411 29.5C22.8411 33.1716 25.8284 36.159 29.5 36.159C33.1719 36.159 36.159 33.1716 36.159 29.5C36.159 25.8282 33.1719 22.8411 29.5 22.8411Z" fill="#858585"/>
<path d="M38.179 19.8308C37.8001 19.8308 37.4917 20.1392 37.4917 20.5181C37.4917 20.897 37.8001 21.2054 38.179 21.2054C38.5581 21.2054 38.8665 20.8972 38.8665 20.5181C38.8665 20.139 38.5581 19.8308 38.179 19.8308Z" fill="#858585"/>
</svg>
